<?xml version="1.0" encoding="UTF-8" standalone="no"?>
<!DOCTYPE svg PUBLIC "-//W3C//DTD SVG 1.1//EN" "http://www.w3.org/Graphics/SVG/1.1/DTD/svg11.dtd">
<svg version="1.1" xmlns="http://www.w3.org/2000/svg" xmlns:xlink="http://www.w3.org/1999/xlink" preserveAspectRatio="xMidYMid meet" viewBox="0 0 640 640" width="640" height="640"><defs><path d="M285.43 212.64C289.18 212.64 319.18 212.64 322.93 212.64C322.93 192.75 339.11 176.57 359 176.57C378.89 176.57 395.07 192.75 395.07 212.64C395.07 232.53 378.89 248.71 359 248.71C342.7 248.71 261.17 248.71 114.42 248.71L114.42 286.21C261.17 286.21 342.7 286.21 359 286.21C399.57 286.21 432.57 253.21 432.57 212.64C432.57 172.08 399.57 139.07 359 139.07C318.44 139.07 285.43 172.08 285.43 212.64Z" id="d1dGht5mXW"></path><path d="M190.18 374.83L190.18 412.33C365.4 412.33 462.74 412.33 482.21 412.33C502.1 412.33 518.28 428.51 518.28 448.4C518.28 468.29 502.1 484.47 482.21 484.47C462.32 484.47 446.14 468.29 446.14 448.4C442.39 448.4 412.39 448.4 408.64 448.4C408.64 488.96 441.64 521.97 482.21 521.97C522.77 521.97 555.78 488.96 555.78 448.4C555.78 407.83 522.77 374.83 482.21 374.83C443.27 374.83 345.93 374.83 190.18 374.83Z" id="c1V4Fey7k"></path><path d="M469.84 264.19C473.59 264.19 503.59 264.19 507.34 264.19C507.34 237.95 528.68 216.61 554.92 216.61C581.16 216.61 602.5 237.95 602.5 264.19C602.5 290.43 581.16 311.77 554.92 311.77C517.93 311.77 332.95 311.77 0 311.77L0 349.27C332.95 349.27 517.93 349.27 554.92 349.27C601.83 349.27 640 311.1 640 264.19C640 217.27 601.83 179.11 554.92 179.11C508.01 179.11 469.84 217.27 469.84 264.19Z" id="bTgnysny"></path><path d="M105.58 61.22C105.58 61.22 105.58 61.22 105.58 61.22C105.58 83.72 105.58 96.22 105.58 98.72C105.58 98.72 105.58 98.72 105.58 98.72C83.08 98.72 70.58 98.72 68.08 98.72C68.08 98.72 68.08 98.72 68.08 98.72C68.08 76.22 68.08 63.72 68.08 61.22C68.08 61.22 68.08 61.22 68.08 61.22C90.58 61.22 103.08 61.22 105.58 61.22Z" id="bqhJfFVcH"></path><path d="M210.09 126.45C210.09 126.45 210.09 126.45 210.09 126.45C210.09 148.95 210.09 161.45 210.09 163.95C210.09 163.95 210.09 163.95 210.09 163.95C187.59 163.95 175.09 163.95 172.59 163.95C172.59 163.95 172.59 163.95 172.59 163.95C172.59 141.45 172.59 128.95 172.59 126.45C172.59 126.45 172.59 126.45 172.59 126.45C195.09 126.45 207.59 126.45 210.09 126.45Z" id="eFb740JXq"></path><path d="M329.09 33.68C329.09 33.68 329.09 33.68 329.09 33.68C329.09 56.18 329.09 68.68 329.09 71.18C329.09 71.18 329.09 71.18 329.09 71.18C306.59 71.18 294.09 71.18 291.59 71.18C291.59 71.18 291.59 71.18 291.59 71.18C291.59 48.68 291.59 36.18 291.59 33.68C291.59 33.68 291.59 33.68 291.59 33.68C314.09 33.68 326.59 33.68 329.09 33.68Z" id="c7ZmZ4wJj"></path><path d="M614.41 33.68C614.41 33.68 614.41 33.68 614.41 33.68C614.41 56.18 614.41 68.68 614.41 71.18C614.41 71.18 614.41 71.18 614.41 71.18C591.91 71.18 579.41 71.18 576.91 71.18C576.91 71.18 576.91 71.18 576.91 71.18C576.91 48.68 576.91 36.18 576.91 33.68C576.91 33.68 576.91 33.68 576.91 33.68C599.41 33.68 611.91 33.68 614.41 33.68Z" id="bjrSBvsgR"></path><path d="M488.45 81.51C488.45 81.51 488.45 81.51 488.45 81.51C488.45 104.01 488.45 116.51 488.45 119.01C488.45 119.01 488.45 119.01 488.45 119.01C465.95 119.01 453.45 119.01 450.95 119.01C450.95 119.01 450.95 119.01 450.95 119.01C450.95 96.51 450.95 84.01 450.95 81.51C450.95 81.51 450.95 81.51 450.95 81.51C473.45 81.51 485.95 81.51 488.45 81.51Z" id="b1nYRYncau"></path><path d="M59.74 404.11C59.74 404.11 59.74 404.11 59.74 404.11C59.74 426.61 59.74 439.11 59.74 441.61C59.74 441.61 59.74 441.61 59.74 441.61C37.24 441.61 24.74 441.61 22.24 441.61C22.24 441.61 22.24 441.61 22.24 441.61C22.24 419.11 22.24 406.61 22.24 404.11C22.24 404.11 22.24 404.11 22.24 404.11C44.74 404.11 57.24 404.11 59.74 404.11Z" id="b7eAB86UE"></path><path d="M110.3 542.6C110.3 542.6 110.3 542.6 110.3 542.6C110.3 565.1 110.3 577.6 110.3 580.1C110.3 580.1 110.3 580.1 110.3 580.1C87.8 580.1 75.3 580.1 72.8 580.1C72.8 580.1 72.8 580.1 72.8 580.1C72.8 557.6 72.8 545.1 72.8 542.6C72.8 542.6 72.8 542.6 72.8 542.6C95.3 542.6 107.8 542.6 110.3 542.6Z" id="e2xOLolQdj"></path><path d="M261.34 472.91C261.34 472.91 261.34 472.91 261.34 472.91C261.34 495.41 261.34 507.91 261.34 510.41C261.34 510.41 261.34 510.41 261.34 510.41C238.84 510.41 226.34 510.41 223.84 510.41C223.84 510.41 223.84 510.41 223.84 510.41C223.84 487.91 223.84 475.41 223.84 472.91C223.84 472.91 223.84 472.91 223.84 472.91C246.34 472.91 258.84 472.91 261.34 472.91Z" id="aninZCVtp"></path><path d="M614.41 484.74C614.41 484.74 614.41 484.74 614.41 484.74C614.41 507.24 614.41 519.74 614.41 522.24C614.41 522.24 614.41 522.24 614.41 522.24C591.91 522.24 579.41 522.24 576.91 522.24C576.91 522.24 576.91 522.24 576.91 522.24C576.91 499.74 576.91 487.24 576.91 484.74C576.91 484.74 576.91 484.74 576.91 484.74C599.41 484.74 611.91 484.74 614.41 484.74Z" id="eeeS6I2g7"></path><path d="M357.5 542.6C357.5 542.6 357.5 542.6 357.5 542.6C357.5 565.1 357.5 577.6 357.5 580.1C357.5 580.1 357.5 580.1 357.5 580.1C335 580.1 322.5 580.1 320 580.1C320 580.1 320 580.1 320 580.1C320 557.6 320 545.1 320 542.6C320 542.6 320 542.6 320 542.6C342.5 542.6 355 542.6 357.5 542.6Z" id="czRpBpC0W"></path><path d="M512.61 568.83C512.61 568.83 512.61 568.83 512.61 568.83C512.61 591.33 512.61 603.83 512.61 606.33C512.61 606.33 512.61 606.33 512.61 606.33C490.11 606.33 477.61 606.33 475.11 606.33C475.11 606.33 475.11 606.33 475.11 606.33C475.11 583.83 475.11 571.33 475.11 568.83C475.11 568.83 475.11 568.83 475.11 568.83C497.61 568.83 510.11 568.83 512.61 568.83Z" id="aaN48wgUU"></path></defs><g><g><g><use xlink:href="#d1dGht5mXW" opacity="1" fill="#5d5d5d" fill-opacity="1"></use><g><use xlink:href="#d1dGht5mXW" opacity="1" fill-opacity="0" stroke="#000000" stroke-width="1" stroke-opacity="0"></use></g></g><g><use xlink:href="#c1V4Fey7k" opacity="1" fill="#8a8989" fill-opacity="1"></use><g><use xlink:href="#c1V4Fey7k" opacity="1" fill-opacity="0" stroke="#000000" stroke-width="1" stroke-opacity="0"></use></g></g><g><use xlink:href="#bTgnysny" opacity="1" fill="#363030" fill-opacity="1"></use><g><use xlink:href="#bTgnysny" opacity="1" fill-opacity="0" stroke="#0e0c0c" stroke-width="1" stroke-opacity="0"></use></g></g><g><use xlink:href="#bqhJfFVcH" opacity="1" fill="#747474" fill-opacity="1"></use><g><use xlink:href="#bqhJfFVcH" opacity="1" fill-opacity="0" stroke="#000000" stroke-width="1" stroke-opacity="0"></use></g></g><g><use xlink:href="#eFb740JXq" opacity="1" fill="#000000" fill-opacity="1"></use><g><use xlink:href="#eFb740JXq" opacity="1" fill-opacity="0" stroke="#000000" stroke-width="1" stroke-opacity="0"></use></g></g><g><use xlink:href="#c7ZmZ4wJj" opacity="1" fill="#2a1e1e" fill-opacity="1"></use><g><use xlink:href="#c7ZmZ4wJj" opacity="1" fill-opacity="0" stroke="#000000" stroke-width="1" stroke-opacity="0"></use></g></g><g><use xlink:href="#bjrSBvsgR" opacity="1" fill="#8c8585" fill-opacity="1"></use><g><use xlink:href="#bjrSBvsgR" opacity="1" fill-opacity="0" stroke="#000000" stroke-width="1" stroke-opacity="0"></use></g></g><g><use xlink:href="#b1nYRYncau" opacity="1" fill="#565353" fill-opacity="1"></use><g><use xlink:href="#b1nYRYncau" opacity="1" fill-opacity="0" stroke="#000000" stroke-width="1" stroke-opacity="0"></use></g></g><g><use xlink:href="#b7eAB86UE" opacity="1" fill="#5f5b5b" fill-opacity="1"></use><g><use xlink:href="#b7eAB86UE" opacity="1" fill-opacity="0" stroke="#000000" stroke-width="1" stroke-opacity="0"></use></g></g><g><use xlink:href="#e2xOLolQdj" opacity="1" fill="#8f8f8f" fill-opacity="1"></use><g><use xlink:href="#e2xOLolQdj" opacity="1" fill-opacity="0" stroke="#000000" stroke-width="1" stroke-opacity="0"></use></g></g><g><use xlink:href="#aninZCVtp" opacity="1" fill="#444343" fill-opacity="1"></use><g><use xlink:href="#aninZCVtp" opacity="1" fill-opacity="0" stroke="#000000" stroke-width="1" stroke-opacity="0"></use></g></g><g><use xlink:href="#eeeS6I2g7" opacity="1" fill="#2a2a2a" fill-opacity="1"></use><g><use xlink:href="#eeeS6I2g7" opacity="1" fill-opacity="0" stroke="#000000" stroke-width="1" stroke-opacity="0"></use></g></g><g><use xlink:href="#czRpBpC0W" opacity="1" fill="#4a4242" fill-opacity="1"></use><g><use xlink:href="#czRpBpC0W" opacity="1" fill-opacity="0" stroke="#000000" stroke-width="1" stroke-opacity="0"></use></g></g><g><use xlink:href="#aaN48wgUU" opacity="1" fill="#000000" fill-opacity="1"></use><g><use xlink:href="#aaN48wgUU" opacity="1" fill-opacity="0" stroke="#000000" stroke-width="1" stroke-opacity="0"></use></g></g></g></g></svg>