<?xml version="1.0" encoding="utf-8"?>
<svg viewBox="119.467 0 273.067 512" xmlns="http://www.w3.org/2000/svg">
  <g>
    <g>
      <path d="M387.268,239.582c-3.191-1.323-6.861-0.589-9.301,1.852L256,363.4L134.033,241.433c-2.441-2.44-6.101-3.166-9.301-1.852 c-3.191,1.323-5.265,4.437-5.265,7.885V384c0,2.364,0.981,4.625,2.714,6.238l128,119.467c1.638,1.527,3.729,2.295,5.82,2.295 s4.181-0.768,5.828-2.295l128-119.467c1.724-1.613,2.705-3.874,2.705-6.238V247.466 C392.533,244.019,390.46,240.904,387.268,239.582z" style="fill: rgba(207, 207, 207, 0.59);"/>
      <path d="M387.268,0.648c-3.191-1.314-6.861-0.597-9.301,1.852L256,124.467L134.033,2.5c-2.441-2.449-6.101-3.157-9.301-1.852 c-3.191,1.323-5.265,4.437-5.265,7.885v136.533c0,2.364,0.981,4.625,2.714,6.238l128,119.467c1.638,1.528,3.729,2.295,5.82,2.295 s4.181-0.768,5.828-2.295l128-119.467c1.724-1.613,2.705-3.874,2.705-6.238V8.533C392.533,5.086,390.46,1.971,387.268,0.648z" style="fill: rgba(207, 207, 207, 0.59);"/>
    </g>
  </g>
</svg>