<?xml version="1.0" encoding="UTF-8" standalone="no"?>
<!DOCTYPE svg PUBLIC "-//W3C//DTD SVG 1.1//EN" "http://www.w3.org/Graphics/SVG/1.1/DTD/svg11.dtd">
<svg version="1.1" xmlns="http://www.w3.org/2000/svg" xmlns:xlink="http://www.w3.org/1999/xlink" preserveAspectRatio="xMidYMid meet" viewBox="0 0 640 640" width="640" height="640"><defs><path d="M600.32 263.35C618.63 237.16 629.39 205.29 629.39 170.91C629.39 81.7 557.07 9.38 467.85 9.38C378.64 9.38 306.32 81.7 306.32 170.91C306.32 199.83 313.93 226.96 327.24 250.44C288.48 279.95 263.47 326.56 263.47 379.02C263.47 468.24 335.79 540.56 425 540.56C433.31 540.56 441.47 539.93 449.45 538.72C448.89 542.55 448.59 546.46 448.59 550.45C448.59 594.73 484.48 630.62 528.76 630.62C573.04 630.62 608.93 594.72 608.93 550.45C608.93 515.41 586.45 485.64 555.12 474.73C574.86 447.95 586.53 414.85 586.53 379.03C586.53 370.77 585.9 362.65 584.71 354.73C602.24 343.76 613.91 324.29 613.91 302.09C613.91 287.43 608.82 273.97 600.32 263.35Z" id="e2P58O6dYg"></path><path d="M437.75 550.45C437.75 508 404.77 473.29 363.03 470.48C354.56 431.11 328.56 398.26 293.59 380.49C298.76 370.28 301.69 358.75 301.69 346.52C301.69 333.38 298.32 321.03 292.4 310.26C327.52 289.62 354.16 256.08 365.78 216.15C367.91 216.31 370.04 216.43 372.21 216.43C416.49 216.43 452.38 180.53 452.38 136.26C452.38 91.98 416.48 56.08 372.21 56.08C358.18 56.08 345 59.7 333.52 66.04C303.89 31.37 259.85 9.38 210.68 9.38C121.46 9.38 49.14 81.7 49.14 170.91C49.14 214.86 66.7 254.7 95.18 283.82C64 294.81 41.66 324.51 41.66 359.44C41.66 390.98 59.88 418.26 86.37 431.34C43.43 443.16 11.87 482.46 11.87 529.16C11.87 585.19 57.3 630.62 113.33 630.62C129.62 630.62 211.03 630.62 357.58 630.62C411.03 606.69 437.75 579.97 437.75 550.45Z" id="e5FGHkBgIM"></path></defs><g><g><g><use xlink:href="#e2P58O6dYg" opacity="1" fill="#c9caca" fill-opacity="1"></use><g><use xlink:href="#e2P58O6dYg" opacity="1" fill-opacity="0" stroke="#424242" stroke-width="20" stroke-opacity="1"></use></g></g><g><use xlink:href="#e5FGHkBgIM" opacity="1" fill="#dfe0e0" fill-opacity="1"></use><g><use xlink:href="#e5FGHkBgIM" opacity="1" fill-opacity="0" stroke="#424242" stroke-width="20" stroke-opacity="1"></use></g></g></g></g></svg>