<svg id="Layer_2" enable-background="new 0 0 64 64" height="512" viewBox="0 0 64 64" width="512" xmlns="http://www.w3.org/2000/svg"><path d="m56 8h-48v.7c0 .857.183 1.703.538 2.483l7.452 16.394c1.321 2.906 1.927 6.086 1.768 9.275l-.447 8.93c-.19 3.806 1.8 7.39 5.131 9.241l12.558 6.977-1.952-3.904c-1.839-3.677-1.239-8.106 1.511-11.162l10.84-12.044c1.718-1.909 3.052-4.131 3.93-6.544l6.31-17.352c.239-.658.361-1.352.361-2.051z" fill="#edeff1"/><ellipse cx="32" cy="8" fill="#edeff1" rx="24" ry="6"/><g fill="#d3d3d3"><ellipse cx="32" cy="8" rx="20" ry="4"/><path d="m32 30c-12.424 0-25-2.404-25-7 0-1.066.624-2.611 3.599-3.916l.803 1.832c-1.505.659-2.402 1.438-2.402 2.084 0 2.039 8.96 5 23 5s23-2.961 23-5c0-.646-.897-1.425-2.401-2.084l.803-1.832c2.974 1.305 3.598 2.85 3.598 3.916 0 4.596-12.576 7-25 7z"/><path d="m33.5 43c-9.69 0-19.5-2.061-19.5-6 0-1.312 1.22-2.619 2.777-2.975l.445 1.95c-.745.171-1.222.769-1.222 1.025 0 1.357 6.177 4 17.5 4s17.5-2.643 17.5-4c0-.729-1.156-2.197-4.261-3.035l.521-1.931c3.487.941 5.74 2.89 5.74 4.966 0 3.939-9.81 6-19.5 6z"/><path d="m26 51c-5.298 0-11-1.252-11-4h2c.151.54 3.15 2 9 2s8.849-1.46 9.002-2.015l1.998.015c0 2.748-5.702 4-11 4z"/><path d="m32 19c-11.255 0-28-1.864-28-7h2c0 1.745 8.93 5 26 5z"/><path d="m31 37c-5.251 0-11.084-1.944-12.638-3.229l1.275-1.541c.972.804 6.157 2.77 11.363 2.77 5.55 0 10.44-2.007 11.362-2.771l1.275 1.541c-1.629 1.349-7.225 3.23-12.637 3.23z"/></g></svg>